<mxfile host="app.diagrams.net" modified="2021-12-04T15:24:00.174Z" agent="5.0 (Windows NT 10.0; Win64; x64) AppleWebKit/537.36 (KHTML, like Gecko) Chrome/96.0.4664.55 Safari/537.36 Edg/96.0.1054.43" etag="4j2CyZWL6nsosY1vhoNw" version="15.9.1" type="github">
  <diagram id="OW-cKzqow4rzI6PhlKxh" name="Page-1">
    <mxGraphModel dx="1422" dy="905" grid="1" gridSize="10" guides="1" tooltips="1" connect="1" arrows="1" fold="1" page="1" pageScale="1" pageWidth="827" pageHeight="1169" math="0" shadow="0">
      <root>
        <mxCell id="0" />
        <mxCell id="1" parent="0" />
        <mxCell id="BweODm1hxquQ2g9b3cDr-12" value="" style="edgeStyle=orthogonalEdgeStyle;rounded=0;orthogonalLoop=1;jettySize=auto;html=1;" edge="1" parent="1" source="BweODm1hxquQ2g9b3cDr-1" target="BweODm1hxquQ2g9b3cDr-11">
          <mxGeometry relative="1" as="geometry" />
        </mxCell>
        <mxCell id="BweODm1hxquQ2g9b3cDr-1" value="abcabcbb" style="rounded=0;whiteSpace=wrap;html=1;" vertex="1" parent="1">
          <mxGeometry x="210" y="30" width="120" height="60" as="geometry" />
        </mxCell>
        <mxCell id="BweODm1hxquQ2g9b3cDr-14" value="" style="edgeStyle=orthogonalEdgeStyle;rounded=0;orthogonalLoop=1;jettySize=auto;html=1;" edge="1" parent="1" source="BweODm1hxquQ2g9b3cDr-6" target="BweODm1hxquQ2g9b3cDr-7">
          <mxGeometry relative="1" as="geometry" />
        </mxCell>
        <mxCell id="BweODm1hxquQ2g9b3cDr-6" value="滑动窗口：abc" style="rounded=1;whiteSpace=wrap;html=1;" vertex="1" parent="1">
          <mxGeometry x="210" y="310" width="120" height="60" as="geometry" />
        </mxCell>
        <mxCell id="BweODm1hxquQ2g9b3cDr-10" value="Y" style="edgeStyle=orthogonalEdgeStyle;rounded=0;orthogonalLoop=1;jettySize=auto;html=1;" edge="1" parent="1" source="BweODm1hxquQ2g9b3cDr-7" target="BweODm1hxquQ2g9b3cDr-9">
          <mxGeometry relative="1" as="geometry">
            <Array as="points">
              <mxPoint x="270" y="470" />
              <mxPoint x="270" y="470" />
            </Array>
          </mxGeometry>
        </mxCell>
        <mxCell id="BweODm1hxquQ2g9b3cDr-19" value="N" style="edgeStyle=orthogonalEdgeStyle;rounded=0;orthogonalLoop=1;jettySize=auto;html=1;exitX=0;exitY=0.5;exitDx=0;exitDy=0;entryX=0.05;entryY=0.963;entryDx=0;entryDy=0;entryPerimeter=0;" edge="1" parent="1" source="BweODm1hxquQ2g9b3cDr-7" target="BweODm1hxquQ2g9b3cDr-17">
          <mxGeometry relative="1" as="geometry">
            <Array as="points">
              <mxPoint x="110" y="430" />
              <mxPoint x="110" y="673" />
            </Array>
          </mxGeometry>
        </mxCell>
        <mxCell id="BweODm1hxquQ2g9b3cDr-7" value="当right遇到a的时候，重复了" style="rhombus;whiteSpace=wrap;html=1;" vertex="1" parent="1">
          <mxGeometry x="230" y="390" width="80" height="80" as="geometry" />
        </mxCell>
        <mxCell id="BweODm1hxquQ2g9b3cDr-20" style="edgeStyle=orthogonalEdgeStyle;rounded=0;orthogonalLoop=1;jettySize=auto;html=1;entryX=0.033;entryY=-0.025;entryDx=0;entryDy=0;entryPerimeter=0;" edge="1" parent="1" source="BweODm1hxquQ2g9b3cDr-9" target="BweODm1hxquQ2g9b3cDr-17">
          <mxGeometry relative="1" as="geometry">
            <Array as="points">
              <mxPoint x="312" y="560" />
            </Array>
          </mxGeometry>
        </mxCell>
        <mxCell id="BweODm1hxquQ2g9b3cDr-9" value="窗口的left++" style="whiteSpace=wrap;html=1;" vertex="1" parent="1">
          <mxGeometry x="210" y="530" width="90" height="60" as="geometry" />
        </mxCell>
        <mxCell id="BweODm1hxquQ2g9b3cDr-13" style="edgeStyle=orthogonalEdgeStyle;rounded=0;orthogonalLoop=1;jettySize=auto;html=1;entryX=0.5;entryY=0;entryDx=0;entryDy=0;" edge="1" parent="1" source="BweODm1hxquQ2g9b3cDr-11" target="BweODm1hxquQ2g9b3cDr-6">
          <mxGeometry relative="1" as="geometry" />
        </mxCell>
        <mxCell id="BweODm1hxquQ2g9b3cDr-23" value="Y" style="edgeStyle=orthogonalEdgeStyle;rounded=0;orthogonalLoop=1;jettySize=auto;html=1;" edge="1" parent="1" source="BweODm1hxquQ2g9b3cDr-11" target="BweODm1hxquQ2g9b3cDr-22">
          <mxGeometry relative="1" as="geometry" />
        </mxCell>
        <mxCell id="BweODm1hxquQ2g9b3cDr-25" value="N" style="edgeStyle=orthogonalEdgeStyle;rounded=0;orthogonalLoop=1;jettySize=auto;html=1;" edge="1" parent="1" source="BweODm1hxquQ2g9b3cDr-11" target="BweODm1hxquQ2g9b3cDr-24">
          <mxGeometry relative="1" as="geometry" />
        </mxCell>
        <mxCell id="BweODm1hxquQ2g9b3cDr-11" value="right&amp;lt; n ?" style="rhombus;whiteSpace=wrap;html=1;rounded=0;" vertex="1" parent="1">
          <mxGeometry x="230" y="120" width="80" height="80" as="geometry" />
        </mxCell>
        <mxCell id="BweODm1hxquQ2g9b3cDr-21" style="edgeStyle=orthogonalEdgeStyle;rounded=0;orthogonalLoop=1;jettySize=auto;html=1;exitX=1;exitY=0.5;exitDx=0;exitDy=0;entryX=1;entryY=0.5;entryDx=0;entryDy=0;" edge="1" parent="1" source="BweODm1hxquQ2g9b3cDr-17" target="BweODm1hxquQ2g9b3cDr-11">
          <mxGeometry relative="1" as="geometry">
            <Array as="points">
              <mxPoint x="270" y="750" />
              <mxPoint x="440" y="750" />
              <mxPoint x="440" y="160" />
            </Array>
          </mxGeometry>
        </mxCell>
        <mxCell id="BweODm1hxquQ2g9b3cDr-17" value="判断res是否要更新" style="triangle;whiteSpace=wrap;html=1;direction=south;" vertex="1" parent="1">
          <mxGeometry x="230" y="670" width="80" height="60" as="geometry" />
        </mxCell>
        <mxCell id="BweODm1hxquQ2g9b3cDr-22" value="right++" style="whiteSpace=wrap;html=1;rounded=0;" vertex="1" parent="1">
          <mxGeometry x="210" y="230" width="120" height="60" as="geometry" />
        </mxCell>
        <mxCell id="BweODm1hxquQ2g9b3cDr-24" value="return res" style="ellipse;whiteSpace=wrap;html=1;rounded=0;" vertex="1" parent="1">
          <mxGeometry x="50" y="130" width="120" height="60" as="geometry" />
        </mxCell>
      </root>
    </mxGraphModel>
  </diagram>
</mxfile>
